<svg id="PATHS" xmlns="http://www.w3.org/2000/svg" viewBox="0 0 1024 1024"><defs><style>.cls-1{fill:none;stroke:#ec2027;stroke-linecap:square;stroke-linejoin:bevel;stroke-width:4px;}</style></defs><line class="cls-1" x1="325.34" y1="518.91" x2="325.34" y2="555.53"/><line class="cls-1" x1="325.34" y1="555.53" x2="492.73" y2="555.24"/><line class="cls-1" x1="645.17" y1="509.28" x2="645.17" y2="547.48"/><line class="cls-1" x1="492.39" y1="509.28" x2="645.17" y2="509.28"/><line class="cls-1" x1="439.22" y1="509.49" x2="492.39" y2="509.28"/><line class="cls-1" x1="421.01" y1="459.65" x2="421.01" y2="495.38"/><line class="cls-1" x1="438.59" y1="495.38" x2="421.01" y2="495.38"/><line class="cls-1" x1="439.09" y1="494.7" x2="439.22" y2="509.49"/><polyline class="cls-1" points="465.92 430.74 465.92 459.05 465.92 463.35"/><line class="cls-1" x1="486.85" y1="495.38" x2="438.59" y2="495.38"/><line class="cls-1" x1="486.64" y1="463.32" x2="486.85" y2="495.38"/><line class="cls-1" x1="486.64" y1="463.32" x2="465.92" y2="463.35"/><line class="cls-1" x1="486.85" y1="495.38" x2="556.77" y2="495.38"/><line class="cls-1" x1="676.73" y1="495.38" x2="676.73" y2="460.7"/><line class="cls-1" x1="556.77" y1="495.38" x2="676.73" y2="495.38"/><line class="cls-1" x1="556.77" y1="455.61" x2="556.77" y2="495.38"/><line class="cls-1" x1="532.34" y1="432.74" x2="532.34" y2="454.98"/><line class="cls-1" x1="532.34" y1="454.98" x2="556.77" y2="455.61"/><line class="cls-1" x1="365.43" y1="462.98" x2="365.43" y2="495.38"/><line class="cls-1" x1="379.46" y1="462.98" x2="365.43" y2="462.98"/><line class="cls-1" x1="365.43" y1="495.38" x2="421.01" y2="495.38"/><line class="cls-1" x1="362.02" y1="463.8" x2="362.02" y2="375.55"/><line class="cls-1" x1="362.02" y1="375.55" x2="378.62" y2="374.97"/><line class="cls-1" x1="362.02" y1="345.64" x2="362.02" y2="375.55"/><line class="cls-1" x1="376.41" y1="300.63" x2="396.88" y2="300.63"/><line class="cls-1" x1="376.41" y1="285.25" x2="376.41" y2="300.63"/><line class="cls-1" x1="362.02" y1="285.25" x2="376.41" y2="285.25"/><line class="cls-1" x1="362.02" y1="345.64" x2="362.02" y2="285.25"/><line class="cls-1" x1="399.29" y1="345.64" x2="362.02" y2="345.64"/><line class="cls-1" x1="399.58" y1="368.7" x2="399.29" y2="345.64"/><line class="cls-1" x1="430.82" y1="345.64" x2="430.82" y2="323.03"/><line class="cls-1" x1="399.29" y1="345.64" x2="430.82" y2="345.64"/><line class="cls-1" x1="399.08" y1="326.02" x2="399.29" y2="345.64"/><line class="cls-1" x1="509.42" y1="345.33" x2="430.82" y2="345.33"/><line class="cls-1" x1="509.42" y1="359.13" x2="509.42" y2="345.33"/><line class="cls-1" x1="516.16" y1="345.64" x2="509.42" y2="345.64"/><line class="cls-1" x1="516.16" y1="317.84" x2="516.16" y2="345.64"/><line class="cls-1" x1="532.05" y1="345.91" x2="516.16" y2="345.91"/><line class="cls-1" x1="532.05" y1="345.91" x2="602.65" y2="344.12"/><line class="cls-1" x1="532.05" y1="376.34" x2="532.05" y2="345.91"/><line class="cls-1" x1="539.69" y1="376.34" x2="532.05" y2="376.34"/><line class="cls-1" x1="616.16" y1="376.34" x2="616.16" y2="407.29"/><line class="cls-1" x1="539.69" y1="376.34" x2="616.16" y2="376.34"/><line class="cls-1" x1="539.69" y1="409.7" x2="539.69" y2="376.34"/><line class="cls-1" x1="676.36" y1="412.8" x2="676.36" y2="378.83"/><line class="cls-1" x1="634.18" y1="412.59" x2="676.36" y2="412.8"/><line class="cls-1" x1="634.52" y1="392.84" x2="634.18" y2="412.59"/><line class="cls-1" x1="616.16" y1="376.34" x2="634.52" y2="392.84"/><line class="cls-1" x1="622.17" y1="344.59" x2="616.16" y2="376.34"/><line class="cls-1" x1="602.65" y1="344.12" x2="622.17" y2="344.59"/><line class="cls-1" x1="602.65" y1="331.16" x2="602.65" y2="344.12"/><line class="cls-1" x1="676.05" y1="378.83" x2="661.51" y2="378.83"/><line class="cls-1" x1="675.05" y1="344.59" x2="676.05" y2="378.83"/><line class="cls-1" x1="622.17" y1="344.59" x2="675.05" y2="344.59"/><line class="cls-1" x1="676.36" y1="460.7" x2="662.77" y2="460.7"/><line class="cls-1" x1="676.36" y1="412.8" x2="676.36" y2="460.7"/><line class="cls-1" x1="697.92" y1="482.53" x2="676.41" y2="482.53"/><line class="cls-1" x1="376.41" y1="271.35" x2="397.3" y2="271.35"/><line class="cls-1" x1="376.41" y1="285.25" x2="376.41" y2="271.35"/><line class="cls-1" x1="345.17" y1="211.04" x2="345.17" y2="247.58"/><line class="cls-1" x1="362.02" y1="211.04" x2="345.17" y2="211.04"/><line class="cls-1" x1="362.02" y1="285.25" x2="362.02" y2="211.04"/><line class="cls-1" x1="380.93" y1="202.88" x2="388.32" y2="188.57"/><line class="cls-1" x1="370.59" y1="199.13" x2="380.93" y2="202.88"/><line class="cls-1" x1="352.94" y1="179.72" x2="370.59" y2="199.13"/><line class="cls-1" x1="392.47" y1="209.65" x2="381.82" y2="226.65"/><line class="cls-1" x1="380.93" y1="202.88" x2="392.47" y2="209.65"/><line class="cls-1" x1="362.02" y1="211.04" x2="380.93" y2="202.88"/><line class="cls-1" x1="400.6" y1="213.43" x2="392.47" y2="209.65"/><line class="cls-1" x1="408.26" y1="197.43" x2="400.6" y2="213.43"/><line class="cls-1" x1="406.63" y1="216.83" x2="400.6" y2="213.43"/><line class="cls-1" x1="400.6" y1="229.09" x2="406.63" y2="216.83"/><line class="cls-1" x1="413.93" y1="218.41" x2="406.63" y2="216.83"/><line class="cls-1" x1="423.27" y1="202.15" x2="413.93" y2="218.41"/><line class="cls-1" x1="431.66" y1="228.01" x2="413.93" y2="218.41"/><line class="cls-1" x1="431.66" y1="242.23" x2="431.66" y2="228.01"/><line class="cls-1" x1="419.7" y1="242.23" x2="431.66" y2="242.23"/><line class="cls-1" x1="444.1" y1="233.23" x2="431.66" y2="228.01"/><line class="cls-1" x1="450.71" y1="216.5" x2="444.1" y2="233.23"/><line class="cls-1" x1="454.43" y1="239.98" x2="444.1" y2="233.23"/><line class="cls-1" x1="464.66" y1="222.3" x2="454.43" y2="239.98"/><line class="cls-1" x1="484.07" y1="253.67" x2="454.43" y2="239.98"/><line class="cls-1" x1="490.87" y1="237.04" x2="484.07" y2="253.67"/><line class="cls-1" x1="498.08" y1="260.39" x2="484.07" y2="253.67"/><line class="cls-1" x1="502.78" y1="245.43" x2="498.08" y2="260.39"/><line class="cls-1" x1="518.81" y1="271.98" x2="498.08" y2="260.39"/><line class="cls-1" x1="511.3" y1="286.3" x2="518.81" y2="271.98"/><line class="cls-1" x1="546.72" y1="283.31" x2="553.51" y2="266.87"/><line class="cls-1" x1="518.81" y1="271.98" x2="546.72" y2="283.31"/><line class="cls-1" x1="529.09" y1="255.45" x2="518.81" y2="271.98"/><line class="cls-1" x1="558.26" y1="291.29" x2="546.72" y2="283.31"/><line class="cls-1" x1="565.13" y1="274.02" x2="558.26" y2="291.29"/><line class="cls-1" x1="564.71" y1="294.11" x2="558.26" y2="291.29"/><line class="cls-1" x1="553.85" y1="307.38" x2="564.71" y2="294.11"/><line class="cls-1" x1="586.85" y1="303.64" x2="564.71" y2="294.11"/><line class="cls-1" x1="594.04" y1="289.56" x2="586.85" y2="303.64"/><line class="cls-1" x1="599.47" y1="309.76" x2="586.85" y2="303.64"/><line class="cls-1" x1="606.27" y1="295.85" x2="599.47" y2="309.76"/><line class="cls-1" x1="630.14" y1="323.45" x2="599.47" y2="309.76"/><line class="cls-1" x1="634.52" y1="311.7" x2="630.14" y2="323.45"/><line class="cls-1" x1="641" y1="328.49" x2="630.14" y2="323.45"/><line class="cls-1" x1="645.09" y1="315.58" x2="641" y2="328.49"/><line class="cls-1" x1="675.05" y1="344.59" x2="641" y2="328.49"/><line class="cls-1" x1="684.49" y1="328.83" x2="675.05" y2="344.59"/><line class="cls-1" x1="676.05" y1="378.83" x2="706.01" y2="356.4"/><line class="cls-1" x1="689.84" y1="542.18" x2="712.72" y2="542.18"/><line class="cls-1" x1="689.84" y1="509.28" x2="689.84" y2="542.18"/><line class="cls-1" x1="645.17" y1="509.28" x2="689.84" y2="509.28"/><line class="cls-1" x1="719.38" y1="512.12" x2="689.84" y2="509.28"/><line class="cls-1" x1="676.1" y1="631.61" x2="695.2" y2="631.61"/><line class="cls-1" x1="676.1" y1="655.87" x2="676.1" y2="631.61"/><line class="cls-1" x1="712.43" y1="663.11" x2="676.1" y2="655.87"/><line class="cls-1" x1="721.53" y1="654.01" x2="712.43" y2="663.11"/><polyline class="cls-1" points="721.53 582.89 721.53 619.04 721.53 654.01"/><line class="cls-1" x1="706.21" y1="569.62" x2="721.53" y2="582.89"/><line class="cls-1" x1="697.98" y1="576.44" x2="706.21" y2="569.62"/><line class="cls-1" x1="677.57" y1="576.44" x2="697.98" y2="576.44"/><line class="cls-1" x1="677.57" y1="542.6" x2="677.57" y2="576.44"/><line class="cls-1" x1="689.84" y1="542.6" x2="677.57" y2="542.6"/><line class="cls-1" x1="721.53" y1="582.89" x2="697.03" y2="594.65"/><line class="cls-1" x1="676.1" y1="608.65" x2="695.51" y2="608.65"/><line class="cls-1" x1="676.1" y1="631.61" x2="676.1" y2="608.65"/><line class="cls-1" x1="605.32" y1="608.65" x2="605.32" y2="577.25"/><line class="cls-1" x1="676.1" y1="608.65" x2="605.32" y2="608.65"/><line class="cls-1" x1="677.57" y1="576.44" x2="676.1" y2="608.65"/><line class="cls-1" x1="605.32" y1="608.65" x2="605.32" y2="626.02"/><line class="cls-1" x1="595.41" y1="608.65" x2="605.32" y2="608.65"/><line class="cls-1" x1="595.41" y1="580.32" x2="595.41" y2="608.65"/><polyline class="cls-1" points="560.06 608.65 560.06 622.19 560.06 647.9"/><line class="cls-1" x1="526.47" y1="608.65" x2="560.06" y2="608.65"/><line class="cls-1" x1="526.47" y1="593.86" x2="526.47" y2="608.65"/><line class="cls-1" x1="519.86" y1="620.72" x2="498.83" y2="620.72"/><line class="cls-1" x1="526.47" y1="608.65" x2="519.86" y2="620.72"/><line class="cls-1" x1="517.73" y1="608.65" x2="526.47" y2="608.65"/><line class="cls-1" x1="517.73" y1="594.91" x2="517.73" y2="608.65"/><line class="cls-1" x1="479.93" y1="608.65" x2="479.93" y2="594.15"/><line class="cls-1" x1="517.73" y1="608.65" x2="479.93" y2="608.65"/><line class="cls-1" x1="470.54" y1="608.65" x2="470.54" y2="592.97"/><line class="cls-1" x1="479.93" y1="608.65" x2="470.54" y2="608.65"/><line class="cls-1" x1="479.93" y1="624.63" x2="479.93" y2="608.65"/><line class="cls-1" x1="519.86" y1="660.23" x2="499.92" y2="660.23"/><line class="cls-1" x1="519.86" y1="620.72" x2="519.86" y2="660.23"/><line class="cls-1" x1="492.73" y1="555.24" x2="492.39" y2="509.28"/><line class="cls-1" x1="523.21" y1="561.38" x2="492.73" y2="555.24"/><line class="cls-1" x1="560.06" y1="561.38" x2="523.21" y2="561.38"/><line class="cls-1" x1="560.06" y1="608.65" x2="560.06" y2="561.38"/><line class="cls-1" x1="581.08" y1="608.65" x2="560.06" y2="608.65"/><line class="cls-1" x1="581.08" y1="625.08" x2="581.08" y2="608.65"/><line class="cls-1" x1="590.63" y1="608.65" x2="590.63" y2="621.56"/><line class="cls-1" x1="595.41" y1="608.65" x2="590.63" y2="608.65"/><line class="cls-1" x1="581.08" y1="608.65" x2="590.63" y2="608.65"/><line class="cls-1" x1="657.19" y1="669.93" x2="657.19" y2="654.33"/><line class="cls-1" x1="676.1" y1="669.93" x2="657.19" y2="669.93"/><line class="cls-1" x1="676.1" y1="655.87" x2="676.1" y2="669.93"/><polyline class="cls-1" points="589.42 650.28 608.1 650.28 608.1 669.93 642.52 669.93 642.52 684.57 657.26 684.57"/><line class="cls-1" x1="460.31" y1="609.1" x2="470.54" y2="609.1"/><line class="cls-1" x1="459.47" y1="625.76" x2="460.31" y2="609.1"/><line class="cls-1" x1="434.28" y1="608.65" x2="460.31" y2="608.65"/><line class="cls-1" x1="434.28" y1="593.6" x2="434.28" y2="608.65"/><line class="cls-1" x1="421.93" y1="609.28" x2="421.49" y2="590.55"/><line class="cls-1" x1="434.28" y1="609.28" x2="421.93" y2="609.28"/><line class="cls-1" x1="434.54" y1="627.28" x2="434.28" y2="609.28"/><line class="cls-1" x1="414.87" y1="609.68" x2="421.93" y2="609.68"/><line class="cls-1" x1="414.87" y1="625.08" x2="414.87" y2="609.68"/><line class="cls-1" x1="394.17" y1="609.1" x2="414.87" y2="609.1"/><line class="cls-1" x1="394.17" y1="620.25" x2="394.17" y2="609.1"/><line class="cls-1" x1="387.06" y1="609.68" x2="394.17" y2="609.68"/><line class="cls-1" x1="387.06" y1="596.8" x2="387.06" y2="609.68"/><line class="cls-1" x1="378.85" y1="610.07" x2="387.06" y2="610.07"/><line class="cls-1" x1="378.85" y1="624.63" x2="378.85" y2="610.07"/><line class="cls-1" x1="374.03" y1="610.07" x2="378.85" y2="610.07"/><line class="cls-1" x1="374.03" y1="593.86" x2="374.03" y2="610.07"/><line class="cls-1" x1="347.46" y1="610.07" x2="374.03" y2="610.07"/><line class="cls-1" x1="347.46" y1="623.21" x2="347.46" y2="610.07"/><line class="cls-1" x1="339.37" y1="609.1" x2="347.46" y2="609.1"/><line class="cls-1" x1="339.37" y1="595.09" x2="339.37" y2="609.1"/><line class="cls-1" x1="326.79" y1="610.07" x2="339.37" y2="610.07"/><line class="cls-1" x1="326.79" y1="626.76" x2="326.79" y2="610.07"/><line class="cls-1" x1="323.69" y1="660.73" x2="323.69" y2="650.21"/><line class="cls-1" x1="297.14" y1="660.73" x2="323.69" y2="660.73"/><line class="cls-1" x1="297.14" y1="610.07" x2="297.14" y2="660.73"/><line class="cls-1" x1="326.79" y1="610.07" x2="297.14" y2="610.07"/><line class="cls-1" x1="327.7" y1="590.92" x2="326.79" y2="610.07"/><line class="cls-1" x1="676.1" y1="695.75" x2="698.76" y2="695.75"/><line class="cls-1" x1="676.1" y1="669.93" x2="676.1" y2="695.75"/><line class="cls-1" x1="726.68" y1="707.68" x2="726.68" y2="721.72"/><line class="cls-1" x1="676.1" y1="707.68" x2="726.68" y2="707.68"/><line class="cls-1" x1="676.1" y1="722.87" x2="676.1" y2="707.68"/><line class="cls-1" x1="708.1" y1="722.87" x2="676.1" y2="722.87"/><line class="cls-1" x1="676.1" y1="695.75" x2="676.1" y2="707.68"/><line class="cls-1" x1="656.63" y1="732.16" x2="656.63" y2="722.98"/><line class="cls-1" x1="676.1" y1="732.16" x2="656.63" y2="732.16"/><line class="cls-1" x1="676.1" y1="722.87" x2="676.1" y2="732.16"/><line class="cls-1" x1="646.38" y1="743.49" x2="646.38" y2="776.13"/><line class="cls-1" x1="646.38" y1="732.16" x2="646.38" y2="743.49"/><line class="cls-1" x1="656.63" y1="732.16" x2="646.38" y2="732.16"/><line class="cls-1" x1="623.42" y1="750.12" x2="594.62" y2="750.84"/><line class="cls-1" x1="623.42" y1="732.16" x2="623.42" y2="750.12"/><line class="cls-1" x1="646.38" y1="732.16" x2="623.42" y2="732.16"/><line class="cls-1" x1="623.95" y1="732.16" x2="623.95" y2="722.03"/><line class="cls-1" x1="585.94" y1="730.9" x2="623.95" y2="732.16"/><line class="cls-1" x1="585.94" y1="714.08" x2="585.94" y2="730.9"/><line class="cls-1" x1="555.85" y1="730.9" x2="555.85" y2="750.1"/><line class="cls-1" x1="585.94" y1="730.9" x2="555.85" y2="730.9"/><line class="cls-1" x1="585.94" y1="748.06" x2="585.94" y2="730.9"/><line class="cls-1" x1="555.85" y1="730.9" x2="555.85" y2="699.26"/><line class="cls-1" x1="544.83" y1="730.74" x2="555.85" y2="730.9"/><line class="cls-1" x1="544.83" y1="713.48" x2="544.83" y2="730.74"/><line class="cls-1" x1="527.62" y1="731.9" x2="544.83" y2="730.74"/><line class="cls-1" x1="527.62" y1="743.49" x2="527.62" y2="731.9"/><line class="cls-1" x1="520.33" y1="732.16" x2="527.62" y2="732.16"/><line class="cls-1" x1="520.33" y1="703.93" x2="520.33" y2="732.16"/><line class="cls-1" x1="497.58" y1="732.16" x2="520.33" y2="732.16"/><line class="cls-1" x1="497.58" y1="745.8" x2="497.58" y2="732.16"/><line class="cls-1" x1="497.6" y1="709.02" x2="497.58" y2="731.16"/><line class="cls-1" x1="471.59" y1="732.16" x2="471.59" y2="746.38"/><line class="cls-1" x1="497.58" y1="732.16" x2="471.59" y2="732.16"/><line class="cls-1" x1="479.35" y1="680.48" x2="471.07" y2="706.66"/><line class="cls-1" x1="471.07" y1="706.66" x2="464.4" y2="680.69"/><line class="cls-1" x1="471.59" y1="732.16" x2="471.07" y2="706.66"/><line class="cls-1" x1="448.34" y1="730.74" x2="471.59" y2="732.16"/><line class="cls-1" x1="448.34" y1="718.05" x2="448.34" y2="730.74"/><line class="cls-1" x1="456.21" y1="681.37" x2="448.34" y2="718.05"/><line class="cls-1" x1="441.94" y1="679.9" x2="448.34" y2="718.05"/><line class="cls-1" x1="442.89" y1="731.48" x2="448.34" y2="731.48"/><line class="cls-1" x1="442.89" y1="749.84" x2="442.89" y2="731.48"/><line class="cls-1" x1="425.63" y1="729.96" x2="442.89" y2="729.96"/><line class="cls-1" x1="425.63" y1="715.29" x2="425.63" y2="729.96"/><line class="cls-1" x1="414.87" y1="730.9" x2="425.63" y2="730.9"/><line class="cls-1" x1="414.87" y1="747.32" x2="414.87" y2="730.9"/><line class="cls-1" x1="401.52" y1="747.32" x2="414.87" y2="747.32"/><line class="cls-1" x1="401.36" y1="730.22" x2="414.87" y2="730.22"/><line class="cls-1" x1="401.36" y1="708.02" x2="401.36" y2="730.22"/><line class="cls-1" x1="387.35" y1="731.16" x2="401.36" y2="731.16"/><line class="cls-1" x1="387.35" y1="748.95" x2="387.35" y2="731.16"/><line class="cls-1" x1="374.42" y1="748.95" x2="387.35" y2="748.95"/><line class="cls-1" x1="377.57" y1="730.37" x2="387.35" y2="730.37"/><line class="cls-1" x1="377.57" y1="712.33" x2="377.57" y2="730.37"/><line class="cls-1" x1="359.52" y1="730.9" x2="377.57" y2="730.9"/><line class="cls-1" x1="359.52" y1="749.32" x2="359.52" y2="730.9"/><line class="cls-1" x1="355.38" y1="730.9" x2="359.52" y2="730.9"/><line class="cls-1" x1="355.38" y1="701.49" x2="355.38" y2="730.9"/><line class="cls-1" x1="331.9" y1="730.37" x2="355.38" y2="730.37"/><line class="cls-1" x1="331.9" y1="709.97" x2="331.9" y2="730.37"/><line class="cls-1" x1="324.03" y1="687.04" x2="324.03" y2="660.73"/><line class="cls-1" x1="313.48" y1="729.96" x2="331.9" y2="729.96"/><line class="cls-1" x1="313.48" y1="686.12" x2="313.48" y2="729.96"/><line class="cls-1" x1="297.14" y1="686.12" x2="313.48" y2="686.12"/><line class="cls-1" x1="297.14" y1="660.73" x2="297.14" y2="686.12"/><line class="cls-1" x1="313.48" y1="729.96" x2="313.48" y2="749.11"/><line class="cls-1" x1="304.27" y1="729.97" x2="313.48" y2="729.96"/><line class="cls-1" x1="304.27" y1="741.5" x2="304.27" y2="729.97"/><line class="cls-1" x1="304.27" y1="729.97" x2="304.27" y2="707.24"/><polyline class="cls-1" points="587.8 668.41 608.1 668.41 608.1 692.81"/><line class="cls-1" x1="623.74" y1="683.94" x2="642.52" y2="683.94"/><line class="cls-1" x1="274.53" y1="686.12" x2="274.53" y2="660.18"/><line class="cls-1" x1="297.14" y1="686.12" x2="274.53" y2="686.12"/><line class="cls-1" x1="262.98" y1="686.57" x2="274.53" y2="686.57"/><line class="cls-1" x1="262.98" y1="662.54" x2="262.98" y2="686.57"/><line class="cls-1" x1="227.31" y1="686.57" x2="227.31" y2="660.91"/><line class="cls-1" x1="262.98" y1="686.57" x2="227.31" y2="686.57"/></svg>